<svg xmlns="http://www.w3.org/2000/svg" version="1.1" width="800px" height="800px" xlink="http://www.w3.org/1999/xlink" style="overflow:hidden!important;"><g id="svga-group-wrapper" transform="scale(4 4)"><g id="svga-group-backs-single"></g><g id="svga-group-subwrapper" ><g id="svga-group-hair-back" ><path id="SvgjsPath3511" d="M151.582 41.064l-99.508-5.662c0 0-25.074 182.88-25.074 188.596 0 0 100.899 0.72 143.907 0C170.103 216.079 151.582 41.064 151.582 41.064z" fill="#875d3b" stroke-width="none" opacity="1" stroke="none"></path><path id="SvgjsPath3512" d="M121.782 135.105c13.064 28.75 2.538 26.965 3.854 39.638 0.37 2.831 1.156 5.593 1.473 7.734 0.276 1.688 0.51 6.446 0.179 2.23 -0.202-1.254-0.28-2.017-1.04-4.851 -0.344-1.307-0.754-2.708-1.045-4.21 -1.819-7.826 2.865-12.599 2.151-21.366C126.813 149.567 126.288 146.035 121.782 135.105zM132.482 168.094c2.539 10.408 2.397 12.716-0.303 26.76 -0.546 2.782-0.81 4.486-0.754 4.149 0.961-5.248 3.898-12.954 3.881-21.899 0.065-3.489-1.908-11.137-2.385-14.473 0.003 0.027-0.008-0.069 0.006 0.06 -0.813-11.382 4.859-19.403 3.833-35.282C137.411 146.244 128.74 153.279 132.482 168.094zM71.231 126.755c0.111 0.53 0.265 1.167 0.394 1.912 0.097 0.754 0.232 1.602 0.267 2.544 0.464 7.265-1.744 14.69-2.036 22.948 0.104 6.205 1.922 14.294 2.117 18.863 0.106 1.429 0.164 3.229 0.095 5.265 -0.04 2.033-0.224 4.304-0.414 6.67 -0.398 4.738-0.489 4.088-0.419 14.274C71.218 206.547 71.025 210 71.025 210c-0.014-0.4 0.309-2.794 0.541-6.272 0.59-8.505 0.051-8.82 1.468-19.564 0.98-7.612 0.878-11.056 0.42-14.893 0.005 0.053 0.006 0.061 0.007 0.069 -0.876-8.696-3.064-10.4-2.013-22.053 0.462-4.839 1.044-9.731 0.892-13.768 -0.044-2.018-0.33-3.802-0.624-5.236 -0.326-1.427-0.745-2.495-0.995-3.166C70.722 125.117 70.906 125.709 71.231 126.755zM60.831 146.786c0.124 7.726 0.465 10.479 0.262 13.756 -0.052 0.803-0.098 1.499-0.135 2.07 -0.599 9.997 3.298 9.694 3.779 32.334 0.022 2.299 0.128 4.404 0.075 6.16 -0.545 16.677 1.274-10.246 0.117-22.427 -0.744-5.906-2.082-7.601-2.082-14.944 -0.012 0.217-0.003 0.057-0.005 0.104 0-7.93 0.613 3.883-0.622-16.262 -0.711-10.197 4.434-18.809 3.499-30.833C66.187 128.385 60.798 136.771 60.831 146.786z" fill="#784b28" stroke-width="none" opacity="1" stroke="none"></path></g><g id="svga-group-humanbody-single"><path id="SvgjsPath2761" d="M190.858 199.866c-6.008-10.158-13.474-11.973-19.628-13.936 -6.323-2.016-19.346-3.178-26.449-4.6 -6.86-1.373-23.153-5.789-23.339-13.488 -0.192-8.066 4.291-40.09 4.291-40.09H74.005c0 0 4.487 32.023 4.294 40.09 -0.184 7.699-16.48 12.115-23.341 13.488 -7.104 1.422-20.125 2.584-26.448 4.6 -6.156 1.963-13.624 3.777-19.632 13.936 -3.644 6.16-6.008 16.133-6.008 27.133h194C196.869 215.999 194.509 206.026 190.858 199.866z" fill="#f0c7b1" stroke-width="none" opacity="1" stroke="none"></path><path id="SvgjsPath2762" d="M121.442 167.843c2.495 10.929 18.165 13.698 26.293 15.325 21.909 4.379 33.772 5.134 42.297 19.539 2.903 4.916 5.459 15.864 5.962 24.153 1.835 0.291 0.531-17.432-5.136-26.994 -9.742-16.472-29.089-15.135-46.077-18.535C137.921 179.958 121.628 175.542 121.442 167.843L121.442 167.843zM78.558 167.843c-0.186 7.699-16.479 12.115-23.339 13.488 -16.988 3.4-36.335 2.063-46.077 18.535 -5.667 9.563-6.971 27.285-5.136 26.994 0.503-8.289 3.059-19.237 5.962-24.153 8.524-14.405 20.388-15.16 42.297-19.539C60.393 181.541 76.063 178.771 78.558 167.843L78.558 167.843z" fill="#ffe4d6" stroke-width="none" opacity="1" stroke="none"></path><path id="SvgjsPath2763" d="M51.206 189.513c0 0 28.641 0.299 33.473 1.885 2.314 0.758 8.372 5.633 8.372 5.633s-6.556-3.17-8.658-3.758C79.51 191.909 51.206 189.513 51.206 189.513zM99.795 199.999c2.053-0.041 7.887-3.799 7.887-3.799s-5.574 2.059-7.342 2.16c-1.491 0.086-6.366-1.238-6.366-1.238S98.112 200.032 99.795 199.999zM117.008 192.757c6.75-1.818 29.786-3.23 29.786-3.23s-23.791-0.516-30.51 1.725c-2.252 0.752-7.562 5.16-7.562 5.16S114.786 193.354 117.008 192.757z" fill="#e1ac8f" stroke-width="none" opacity="1" stroke="none"></path><path id="SvgjsPath2764" d="M190.858 199.866c-9.741-16.471-29.122-15.142-46.077-18.535 -6.86-1.373-23.153-5.789-23.339-13.488 -0.192-8.066 4.291-40.09 4.291-40.09H74.005c0 0 4.487 32.023 4.294 40.09 -0.184 7.699-16.48 12.115-23.341 13.488 -7.104 1.422-20.125 2.584-26.448 4.6 -6.156 1.963-13.624 3.777-19.632 13.936 -3.644 6.16-6.008 16.133-6.008 27.133h194C196.869 215.999 194.509 206.026 190.858 199.866z" fill="none" stroke="#c27b55" stroke-width="1.5" opacity="1"></path></g><g id="svga-group-chinshadow-single"><path id="SvgjsPath3522" d="M74.767 128.517c0.63 4.561 3.424 25.109 4.058 35.365 4.747 3.863 11.162 7.168 21.177 7.121 9.822 0.046 16.18-3.132 20.899-6.899 0.607-10.183 3.436-30.995 4.069-35.587l0.017-0.113H74.751L74.767 128.517z" fill="url(#SvgjsLinearGradient3523)" opacity="1"></path></g><g id="svga-group-clothes-single" ><path id="SvgjsPath3579" d="M2.258 224.437c-2.481-20.683 6.836-35.34 29.389-41.745 6.619-1.876 14.221-2.843 15.221-2.903 -0.032-0.179-0.039-0.169-0.039-0.532h-0.03c0.074-6.837 7.69-5.493 9.87-5.953 8.623-1.833 11.551-10.877 21.398-8.496 0.242 2.074 0.063 4.47-1.168 13.335 9.286 19.972 19.359 18.247 22.939 29.43 3.245-10.001 14.771-11.587 23.26-29.433 -0.558-5.015-1.771-9.396-1.261-13.568l0.05-0.036c6.596-2.198 9.477 0.747 12.104 3.281 8.005 7.727 12.259 2.831 16.262 6.355 1.592 1.403 2.167 3.398 2.167 5.54 18.244 2.649 49.051 3.68 44.89 44.185l0.079 0.09C178.926 223.985 54.422 228.609 2.258 224.437z" fill="#93dc3b" stroke-width="none" opacity="1" stroke="none"></path><path id="SvgjsPath3580" d="M100.187 206.617c3.609-9.059 14.44-11.18 22.618-27.884 0.08-0.092 0.291-0.507 0.557-1.056 -0.135-1.56-0.313-3.188-1.034-4.899 -0.442-2.854-0.796-5.524-0.496-8.114 1.68 0.489 3.271 1.072 4.362 2.264 1.601 1.748 0.386 4.776-1.148 7.69C122.164 187.172 114.949 196.237 100.187 206.617zM168.869 197.402c2.5 8.834 4.167 18.167 2.165 27.128 1.67-0.041 2.288-0.081 3.84-0.118C175.566 215.002 173.869 204.736 168.869 197.402zM132 199c-10.913 6.366-21.885 8.816-31.799 17.276 -9.916-8.437-20.994-9.911-31.906-16.276 -5-2-12.672-9.104-17.36-14.104 14.75 22.375 25.309 16.026 48.934 31.108 23.625-15.082 34.25-9.957 49-32.332C144.182 189.673 137 197 132 199zM99.796 207.68c-3.609-9.059-14.018-12.242-22.196-28.946 -0.08-0.092-0.291-0.507-0.557-1.056 0.135-1.56-0.22-3.273 0.5-4.985 0.442-2.854 0.635-5.185 0.335-7.774 -1.68 0.489-2.577 0.818-3.667 2.01 -1.601 1.748-0.386 4.776 1.148 7.69C78.241 187.172 85.034 197.3 99.796 207.68zM28.536 196.402c-3.667 8-3.697 18.6-3.005 28.01 1.552 0.037 2.17 0.077 3.84 0.118C27.369 215.569 27.869 205.402 28.536 196.402zM99.869 209.409c13.958-4.18 28.804-11.829 41.144-30.515 -11.142 15.02-27.705 23.887-40.827 29.327 -13.536-4.901-29.742-14.66-39.19-27.776C72.066 198.567 85.911 205.229 99.869 209.409z" fill="#7fcd22" stroke-width="none" opacity="1" stroke="none"></path><path id="SvgjsPath3581" d="M197.389 223.985c-0.097 0-0.216 0.001-0.318 0.001 -0.359-7.608-1.073-15.39-5.076-22.251 -8-15-25-15.375-40.994-18.735 -2 0-3.032-5.541-4.506-7.015 -1.25-1.25-10.875-1.25-13.926-9.508 0.494 0.438 0.963 0.895 1.423 1.338 8.005 7.727 12.259 2.831 16.262 6.355 1.592 1.403 2.167 3.398 2.167 5.54 18.244 2.649 49.051 3.68 44.89 44.185L197.389 223.985zM2.017 224.985c0.097 0 0.216 0.001 0.318 0.001 0.359-7.608 1.173-13.796 5.176-20.657 8-15 25.299-18.367 41.293-21.728 2.939-1.116 1.391-3.242 2.864-4.716 1.25-1.25 8.2-1.275 17.825-11.4 -0.494 0.438-2.62 0.887-3.08 1.33 -8.005 7.727-14.045 5.545-16.262 6.355 -2.735 1-3.158 3.423-3.158 5.564 -18.244 2.649-46.994 8-44.898 45.16L2.017 224.985z" fill="#a8eb57" stroke-width="none" opacity="1" stroke="none"></path><path id="SvgjsPath3582" d="M196.159 204.835c-6.314-22.445-28.114-22.805-43.64-25.21 0-8.395-7.898-6.726-11.53-7.5 -8.012-1.717-7.761-10.998-19.24-7.649 -0.483 3.964 0.445 7.44 1.26 13.62 -8.416 17.668-20.089 19.653-23.169 29.149 -3.372-10.536-13.67-9.479-22.84-29.09 1.274-9.228 1.403-11.365 1.16-13.43 -8.753-1.998-10.727 3.679-18.64 7.47 -4.8 2.249-6.159 0.228-10.28 2.24 -1.71 0.83-2.57 3.08-2.51 4.91 -0.01 0.01 0 0.01 0 0.01 0 0.12 0 0.229 0.02 0.34 -1 0.065-8.597 1.049-15.13 2.9 -22.821 6.48-31.958 21.382-29.45 41.939 10.13 0 20.114 3.728 175.28-0.069 7.202-0.181 19.426-0.381 19.939-0.381C197.569 223.085 198.475 213.097 196.159 204.835zM2.309 224.315c-1.146-27.296 17.235-39.776 44.34-44.05 15.316 25.402 34.063 21.702 53.02 35.91 -17.183-14.276-35.189-12.385-52.5-36.25 -0.194-1.997 0.851-4.209 3.01-5.07 1.53-0.601 3.17-0.43 4.77-0.42 6.04 0.05 10.69-4.681 15.16-8.15 2.13-1.42 5.3-1.49 7.84-1.1 0.198 3.302-1.077 8.271-1.5 11.79 -0.89-1.96-1.73-3.971-2.57-5.98 10.623 31.175 21.215 24.115 25.95 37.05 -1-0.279-17.902-6.352-31.37-19.739 -2.86-2.831-8.527-9.069-8.96-9.65 16.676 22.564 27.331 23.715 40.38 29.53 0 0.01 0.01 0.03 0.01 0.04 0.011 0.033 0.064 0.188 0.08 0.22 0.06-0.03 0.13-0.06 0.2-0.08 0.02-0.02 0.04-0.03 0.07-0.03 1.807-0.882 13.688-5.019 22.729-11.229 9.309-6.403 19.925-20.281 19.131-19.28 -15.556 15.814-17.958 19.4-41.931 30.37 -0.02 0-0.04-0.01-0.06-0.02 -0.02-0.11-0.05-0.221-0.09-0.33 0.01-0.051 0.03-0.101 0.05-0.15 4.212-11.556 16.587-7.09 26.84-38.78 -1.05 2.74-2.15 5.44-3.39 8.08 -0.389-4.649-1.741-8.305-1.591-12.13 1.777-0.593 6.598-0.873 7.931 0.46 5.566 4.755 6.012 8.24 15.08 8.24 2.9 0.019 6.703 0.384 7.13 5.71 -0.53 0.786-4.503 5.471-8.26 9.2 -13.155 13.082-24.923 13.333-43.13 27.25 0.45 0 1.37-0.96 1.73-1.21 14.236-10.101 24.469-9.945 37.56-20.641 6.031-4.927 11.838-12.81 12.46-13.81 0.021 0.01 0.051 0.01 0.07 0.01 24.023 4.132 45.554 8.064 44.61 43.83C89.435 223.233 55.562 226.094 2.309 224.315z" fill="#5fae00" stroke-width="none" opacity="1" stroke="none"></path></g><g id="svga-group-head" ><g id="svga-group-ears-left" style="display:none;"><path id="SvgjsPath2774" d="M47.001 83.974c-1.376-2.313-5.638-7.997-9.98-6.603 -2.749 0.882-3.293 3.765-3.735 6.311 -0.588 3.386 0.471 10.083 1.389 12.503 0.881 2.325 3.533 6.816 5.264 8.527 2.13 2.1 4.775 8.793 5.194 9.487 0.66 1.097 1.536 2.745 4.122 2.538 2.853-0.229 4.584-1.742 5.856-1.999C58.253 114.109 50.582 89.995 47.001 83.974z" fill="#f0c7b1" stroke="#c27b55" stroke-width="1.5" opacity="1"></path><path id="SvgjsPath2775" d="M44.197 97.997c-0.132-0.548 0.007-1.47 0.142-2.362 0.124-0.812 0.24-1.579 0.169-2.121 -0.267-2.032-1.773-5.893-2.757-7.985 -1.132-2.407-2.963-5.439-5.262-6.221 -0.95-0.324-1.575 0.063-1.938 0.456 -0.266 0.289-0.325 0.627-0.238 0.667 0.086 0.04 0.285-0.24 0.572-0.504 0.235-0.216 0.579-0.402 1.051-0.363 -0.19 1.011-1.167 6.49-0.744 10.225 0.333 2.938 1.593 5.131 1.79 5.46 0.029 0.346 0.077 0.685 0.148 1.014 0.929 4.287 4.971 9.163 6.378 10.758 0.259 0.295 0.531 0.47 0.598 0.398 0.066-0.072-0.094-0.364-0.353-0.66 -1.388-1.585-5.391-6.442-6.289-10.579 -0.952-4.389 2.318-10.896 3.048-12.272 0.371 0.646 0.687 1.267 0.93 1.785 0.19 0.406 0.402 0.881 0.619 1.395 -0.429 0.718-3.434 5.958-2.338 10.153 0.406 1.546 2.235 3.54 3.447 4.086 0.667 0.301 0.919 0.75 1.209 1.271 0.336 0.604 0.718 1.288 1.828 1.784 0.225 0.102 0.429 0.142 0.61 0.142 0.313 0 0.551-0.126 0.725-0.276 0.018 0.266 0.017 0.604 0.009 0.917 -0.012 0.404 0.042 0.737 0.137 0.745 0.094 0.008 0.196-0.313 0.207-0.717 0.016-0.496 0.013-1.11-0.072-1.403 -0.248-0.865-1.008-1.841-1.813-2.875C45.221 99.896 44.403 98.844 44.197 97.997zM36.95 94.196c-2.177-6.731 0.656-12.54 1.144-13.464 0.85 0.775 1.6 1.811 2.21 2.824C39.86 84.365 37.041 89.669 36.95 94.196zM46.341 104.042c-1.004-0.447-1.339-1.051-1.666-1.633 -0.293-0.527-0.598-1.072-1.369-1.42 -0.168-0.075-0.352-0.191-0.542-0.323 -2.486-5.906 0.272-8.488 0.963-9.017 0.211 0.722 0.369 1.384 0.439 1.915 0.063 0.488-0.052 1.263-0.167 2.012 -0.142 0.929-0.286 1.89-0.137 2.512 0.226 0.926 1.069 2.009 1.884 3.057 0.723 0.929 1.466 1.888 1.721 2.67C47.359 103.972 47.017 104.345 46.341 104.042z" fill="#c27b55" stroke-width="none" opacity="1" stroke="none"></path></g><g id="svga-group-ears-right" style="display:none;"><path id="SvgjsPath2776" d="M152.736 83.974c1.377-2.313 5.639-7.997 9.98-6.603 2.75 0.882 3.293 3.765 3.736 6.311 0.588 3.386-0.471 10.083-1.389 12.503 -0.881 2.325-3.533 6.816-5.266 8.527 -2.129 2.1-4.775 8.793-5.193 9.487 -0.658 1.097-1.535 2.745-4.121 2.538 -2.854-0.229-4.584-1.742-5.857-1.999C141.484 114.109 149.156 89.995 152.736 83.974z" fill="#f0c7b1" stroke="#c27b55" stroke-width="1.5" opacity="1"></path><path id="SvgjsPath2777" d="M153.727 100.913c-0.805 1.033-1.564 2.009-1.813 2.875 -0.086 0.293-0.088 0.907-0.072 1.403 0.012 0.404 0.113 0.725 0.207 0.717s0.148-0.341 0.137-0.745c-0.008-0.313-0.008-0.651 0.01-0.917 0.174 0.15 0.412 0.276 0.725 0.276 0.182 0 0.385-0.04 0.609-0.142 1.109-0.496 1.492-1.18 1.828-1.784 0.289-0.52 0.543-0.969 1.209-1.271 1.213-0.546 3.041-2.54 3.447-4.086 1.096-4.194-1.908-9.435-2.338-10.153 0.217-0.513 0.43-0.988 0.619-1.395 0.244-0.518 0.559-1.139 0.93-1.785 0.73 1.377 4 7.883 3.049 12.272 -0.896 4.137-4.9 8.994-6.289 10.579 -0.258 0.296-0.418 0.588-0.352 0.66 0.066 0.071 0.338-0.104 0.598-0.398 1.406-1.596 5.449-6.471 6.379-10.758 0.07-0.329 0.117-0.668 0.146-1.014 0.197-0.329 1.459-2.523 1.791-5.46 0.422-3.735-0.555-9.214-0.744-10.225 0.473-0.039 0.814 0.146 1.051 0.363 0.287 0.264 0.486 0.544 0.572 0.504s0.027-0.378-0.238-0.667c-0.363-0.393-0.988-0.779-1.938-0.456 -2.299 0.782-4.131 3.814-5.262 6.221 -0.984 2.093-2.49 5.953-2.758 7.985 -0.072 0.542 0.045 1.309 0.17 2.121 0.135 0.892 0.273 1.814 0.141 2.362C155.336 98.844 154.518 99.896 153.727 100.913zM159.434 83.555c0.611-1.013 1.361-2.049 2.211-2.824 0.488 0.925 3.32 6.733 1.145 13.464C162.697 89.669 159.879 84.365 159.434 83.555zM152.27 103.816c0.254-0.782 0.998-1.741 1.721-2.67 0.816-1.048 1.658-2.131 1.885-3.057 0.148-0.622 0.004-1.583-0.137-2.512 -0.115-0.749-0.23-1.524-0.166-2.012 0.068-0.531 0.227-1.193 0.438-1.915 0.691 0.529 3.449 3.111 0.965 9.017 -0.191 0.132-0.375 0.248-0.543 0.323 -0.771 0.348-1.074 0.893-1.369 1.42 -0.326 0.582-0.662 1.186-1.666 1.633C152.721 104.345 152.379 103.972 152.27 103.816z" fill="#c27b55" stroke-width="none" opacity="1" stroke="none"></path></g><g id="svga-group-faceshape-wrap" ><g id="svga-group-faceshape-single" ><path id="SvgjsPath3519" d="M100.002 0.867C66.384 0.919 39.082 28.09 39.134 61.564c0.009 5.316 0.704 10.471 2.002 15.382h0.001C41.15 77 51.427 107.873 54.086 120.29c2.38 11.116 12.959 20.132 17.72 25.046 5.47 5.649 12.307 14.008 28.197 13.934 15.889 0.074 22.727-8.284 28.197-13.934 4.761-4.914 15.34-13.93 17.72-25.046 2.659-12.417 12.937-43.291 12.947-43.344h0.002c1.298-4.911 1.994-10.066 2.002-15.382C160.923 28.09 133.62 0.919 100.002 0.867z" fill="#f0c7b1" stroke-width="none" opacity="1" stroke="none"></path><path id="SvgjsPath3520" d="M133.47 10.898c14.604 11.017 24.131 29.011 24.1 49.346 -0.008 5.315-0.664 10.471-1.892 15.382h-0.002c-0.011 0.053-9.73 30.925-12.246 43.342 -2.251 11.117-12.256 20.132-16.76 25.047 -5.173 5.649-11.64 14.008-26.667 13.934 -15.028 0.074-21.495-8.284-26.668-13.934 -4.502-4.915-14.508-13.93-16.759-25.047C54.06 106.552 44.34 75.68 44.329 75.626h-0.001c-1.228-4.911-1.885-10.066-1.893-15.382 -0.03-20.335 9.497-38.33 24.101-49.346 -16.522 10.863-27.433 29.499-27.4 50.666 0.009 5.316 0.704 10.471 2.002 15.382h0.001C41.15 77 51.427 107.873 54.086 120.29c2.38 11.116 12.959 20.132 17.72 25.046 5.47 5.649 12.307 14.008 28.197 13.934 15.889 0.074 22.727-8.284 28.197-13.934 4.761-4.914 15.34-13.93 17.72-25.046 2.659-12.417 12.937-43.291 12.947-43.344h0.002c1.298-4.911 1.994-10.066 2.002-15.382C160.903 40.398 149.992 21.762 133.47 10.898z" fill="#e8b9a0" stroke-width="none" opacity="1" stroke="none"></path><path id="SvgjsPath3521" d="M100.002 0.867C66.384 0.919 39.082 28.09 39.134 61.564c0.009 5.316 0.704 10.471 2.002 15.382h0.001C41.15 77 51.427 107.873 54.086 120.29c2.38 11.116 12.959 20.132 17.72 25.046 5.47 5.649 12.307 14.008 28.197 13.934 15.889 0.074 22.727-8.284 28.197-13.934 4.761-4.914 15.34-13.93 17.72-25.046 2.659-12.417 12.937-43.291 12.947-43.344h0.002c1.298-4.911 1.994-10.066 2.002-15.382C160.923 28.09 133.62 0.919 100.002 0.867z" fill="none" stroke="#c27b55" stroke-width="1.5" opacity="1"></path></g></g><g id="svga-group-mouth-single" ><path id="SvgjsPath3561" d="M100.126 141.95c-2.835 0-3.5-2.934-3.5-2.934s3.898 0.763 7 0C103.626 139.017 102.621 141.95 100.126 141.95z" fill="url(#SvgjsLinearGradient3562)" opacity="1"></path><path id="SvgjsPath3565" d="M100.523 139.779c-1.987 0-3.757-0.267-3.868-0.283 -0.137-0.021-0.23-0.147-0.209-0.284 0.021-0.137 0.154-0.226 0.285-0.209 0.041 0.005 4.071 0.61 6.747 0.002 0.133-0.025 0.27 0.055 0.3 0.189s-0.054 0.268-0.188 0.299C102.643 139.708 101.554 139.779 100.523 139.779z" fill="#c27b55" stroke-width="none" opacity="1" stroke="none"></path><path id="SvgjsPath3566" d="M84 130c0 0 11.487 1.189 15.325 1.199C103.499 131.208 117 130 117 130c-3.903 2.826-8.199 5.543-17.926 5.597C90.373 135.646 88.145 132.889 84 130z" fill="#ffffff" stroke-width="none" opacity="1"></path><path id="SvgjsPath3567" d="M84 130c0 0 11.487 1.189 15.325 1.199C103.499 131.208 117 130 117 130c-3.903 2.826-8.199 5.543-17.926 5.597C90.373 135.646 88.145 132.889 84 130z" fill="none" stroke="#c92066" stroke-width="0.75" opacity="1"></path></g><g id="svga-group-eyes-left" ><g id="svga-group-eyesback-left"><path id="SvgjsPath3424" d="M79.063 92.229c-4.31 0.755-7.656 0.71-10.688-0.204 -3.127-0.943-7.188-4.825-8.596-8.495 3.715-0.277 11.349-0.597 14.89-0.154 4.688 0.586 9.474 2.406 12.305 5.236 -0.016 0.294-0.053 0.583-0.087 0.872C84.602 91.031 81.366 91.825 79.063 92.229z" fill="url(#SvgjsRadialGradient3425)" opacity="1"></path></g><g id="svga-group-eyesiriswrapper-left" transform="translate(-1 0.5)"><g id="svga-group-eyesiriscontrol-left" ><g id="svga-group-eyesiris-left" ><path id="SvgjsPath3585" d="M83.206 89.25c-1.231 4.522-5.896 7.187-10.429 5.944 -4.528-1.241-7.203-5.918-5.97-10.442 1.23-4.526 5.905-7.19 10.434-5.947C81.768 80.045 84.439 84.723 83.206 89.25z" fill="#7b5c33" stroke="#4d3009" stroke-width="0.5" opacity="1"></path><path id="SvgjsPath3586" d="M73.962 81.918l-0.221-0.395c-0.776 0.308-1.524 0.631-2.232 0.973l0.524 1.267 -0.066 0.732 -2.021-1.189c-0.66 0.367-1.273 0.75-1.867 1.14l0.005 0.013 -0.692 0.78 1.107 1.132 -1.491 0.813 0.563 0.931 2.633 0.262 -2.468 1.673 2.641-0.146L68.984 92.3l3.255-1.969 -0.875 3.349 1.883-3.093 0.363 3.319 0.544-2.936 0.5-0.061 0.709 3.329 0.216-0.998c0.284-0.074 1.018 0.997 1.297 0.922l-0.829-3.621 1.817 3.621 -0.737-3.756 2.236 2.905c0.08-0.025 0.278-1.204 0.357-1.228l-1.392-2.081 2.53 0.763 -1.518-1.643 -1.219-1.009 5.083 1.137 -2.83-1.723 2-0.818 -4.329-0.437 4.281-2.27 -3.875 0.988 -1.043-0.565 -0.256-0.501 0.074-1.199 0.086-1.967 -1.768 3.113 -0.156-2.279 -0.222-0.597c-0.354 0.124-0.702 0.245-1.043 0.375L73.962 81.918z" fill="#8a6d47" stroke-width="none" opacity="1"></path><path id="SvgjsPath3587" d="M83.303 85.237c-7.429 0.338-11.206 1.927-16.591 3.727 -1.038-4.574 1.839-9.12 6.42-10.149C77.712 77.786 82.267 80.661 83.303 85.237z" fill="#6c4c22" stroke-width="none" opacity="0.9"></path><path id="SvgjsPath3588" d="M76.234,84.165c-1.869-0.536-3.777,0.532-4.258,2.395c-0.484,1.853,0.64,3.793,2.51,4.329c1.871,0.537,3.781-0.532,4.264-2.386C79.237,86.639,78.107,84.7,76.234,84.165z" fill="#000000" stroke-width="none" opacity="0.8"></path><path id="SvgjsPath3589" d="M76.234,84.165c-1.869-0.536-3.777,0.532-4.258,2.395c-0.484,1.853,0.64,3.793,2.51,4.329c1.871,0.537,3.781-0.532,4.264-2.386C79.237,86.639,78.107,84.7,76.234,84.165z" fill="none" stroke="#4d3009" stroke-width="0.75" opacity="1"></path><path id="SvgjsPath3590" d="M68.812 92.044c0.868 1.378 2.021 2.416 3.653 2.762 1.879 0.398 2.094-2.101 0.748-2.387 -1.02-0.215-1.667-0.715-2.199-1.561C70.039 89.31 68.029 90.803 68.812 92.044L68.812 92.044z" fill="#ffffff" stroke-width="none" opacity="0.5"></path><path id="SvgjsPath3591" d="M76.468 83.449c1.316 0.265 2.082 1.087 2.747 2.323 1.222 2.272 4.676 0.252 3.453-2.019 -1.073-1.995-2.86-3.703-5.138-4.162C74.615 79.004 74.206 82.993 76.468 83.449L76.468 83.449z" fill="url(#SvgjsLinearGradient3592)" opacity="1"></path></g></g></g><g id="svga-group-eyesfront-left"><path id="SvgjsPath3449" d="M56 88c0 13.808 8.06 24.999 18 24.999S92 101.808 92 88c0-13.809-8.06-25.001-18-25.001S56 74.191 56 88zM59.78 83.53c3.715-0.277 11.349-0.597 14.89-0.154 4.952 0.619 10.04 2.6 12.788 5.71 -2.289 1.82-5.897 2.705-8.395 3.143 -4.31 0.755-7.656 0.71-10.688-0.204C65.249 91.083 61.188 87.2 59.78 83.53z" fill="#f0c7b1" stroke-width="none" opacity="1" stroke="none"></path><path id="SvgjsPath3450" d="M56.143 86.915c0.027 8.284 8.484 14.962 18.902 14.919 10.414-0.047 18.836-6.796 18.813-15.08 -0.027-8.285-8.486-14.963-18.902-14.92C64.539 71.881 56.119 78.63 56.143 86.915zM59.78 83.53c3.715-0.277 11.349-0.597 14.89-0.154 4.952 0.619 10.04 2.6 12.788 5.71 -2.289 1.82-5.897 2.705-8.395 3.143 -4.31 0.755-7.656 0.71-10.688-0.204C65.249 91.083 61.188 87.2 59.78 83.53z" fill="url(#SvgjsRadialGradient3451)" opacity="1"></path><path id="SvgjsPath3455" d="M59.78 83.53c3.715-0.277 11.349-0.597 14.89-0.154 4.952 0.619 10.04 2.6 12.788 5.71 -2.289 1.82-5.897 2.705-8.395 3.143 -4.31 0.755-7.656 0.71-10.688-0.204C65.249 91.083 61.188 87.2 59.78 83.53z" fill="url(#SvgjsRadialGradient3456)" opacity="1"></path><path id="SvgjsPath3459" d="M67.363 79.695c6.133-0.278 8.613 0.088 12.986 1.384 1.662 0.602 1.852 0.772 2.555 1.214C79.119 80.256 68.83 79.641 67.363 79.695zM59.396 86.752c2.854 5.494 4.797 4.894 7.531 6.058 0.025 0.009-1.51-0.579-2.664-1.196C61.273 89.895 60.908 89.163 59.396 86.752z" fill="#c27b55" stroke-width="none" opacity="1" stroke="none"></path><path id="SvgjsPath3460" d="M56 81.734c3.096 2.525 4.363 5.953 7.398 8.529 2.037 1.729 5.877 2.717 9.602 2.773 3.844 0.058 8.59-0.434 10.258-0.855 2.838-0.718 3.539-1.278 6.742-1.472 -1.986-3.039-3.836-4.399-6.268-5.841 -2.977-1.764-5.074-2.279-8.719-2.564C70.16 81.924 56 81.734 56 81.734zM60.705 83.826c3.467-0.258 10.59-0.557 13.895-0.144 4.621 0.577 9.369 2.426 11.934 5.328 -2.137 1.699-5.504 2.524-7.834 2.933 -4.021 0.705-7.145 0.663-9.973-0.19C65.809 90.874 62.02 87.251 60.705 83.826z" fill="#000000" stroke-width="none" opacity="1" stroke="none"></path></g></g><g id="svga-group-eyes-right" ><g id="svga-group-eyesback-right"><path id="SvgjsPath3432" d="M120.937 92.229c4.31 0.755 7.656 0.71 10.688-0.204 3.127-0.943 7.188-4.825 8.596-8.495 -3.715-0.277-11.349-0.597-14.89-0.154 -4.688 0.586-9.474 2.406-12.305 5.236 0.016 0.294 0.053 0.583 0.087 0.872C115.398 91.031 118.634 91.825 120.937 92.229z" fill="url(#SvgjsRadialGradient3433)" opacity="1"></path></g><g id="svga-group-eyesiriswrapper-right" transform="translate(1 0.5)"><g id="svga-group-eyesiriscontrol-right" ><g id="svga-group-eyesiris-right" ><path id="SvgjsPath3595" d="M133.199 89.25c-1.231 4.522-5.896 7.187-10.429 5.944 -4.528-1.241-7.203-5.918-5.97-10.442 1.23-4.526 5.905-7.19 10.434-5.947C131.761 80.045 134.433 84.723 133.199 89.25z" fill="#7b5c33" stroke="#4d3009" stroke-width="0.5" opacity="1"></path><path id="SvgjsPath3596" d="M123.955 81.918l-0.221-0.395c-0.776 0.308-1.524 0.631-2.232 0.973l0.524 1.267 -0.066 0.732 -2.021-1.189c-0.66 0.367-1.273 0.75-1.867 1.14l0.005 0.013 -0.692 0.78 1.107 1.132L117 87.182l0.563 0.931 2.633 0.262 -2.468 1.673 2.641-0.146 -1.392 2.398 3.255-1.969 -0.875 3.349 1.883-3.093 0.363 3.319 0.544-2.936 0.5-0.061 0.709 3.329 0.216-0.998c0.284-0.074 1.018 0.997 1.297 0.922l-0.829-3.621 1.817 3.621 -0.737-3.756 2.236 2.905c0.08-0.025 0.278-1.204 0.357-1.228l-1.392-2.081 2.53 0.763 -1.518-1.643 -1.219-1.009 5.083 1.137 -2.83-1.723 2-0.818 -4.329-0.437 4.281-2.27 -3.875 0.988 -1.043-0.565 -0.256-0.501 0.074-1.199 0.086-1.967 -1.768 3.113 -0.156-2.279 -0.222-0.597c-0.354 0.124-0.702 0.245-1.043 0.375L123.955 81.918z" fill="#8a6d47" stroke-width="none" opacity="1"></path><path id="SvgjsPath3597" d="M133.296 85.237c-7.429 0.338-11.206 1.927-16.591 3.727 -1.038-4.574 1.839-9.12 6.42-10.149C127.705 77.786 132.26 80.661 133.296 85.237z" fill="#6c4c22" stroke-width="none" opacity="0.9"></path><path id="SvgjsPath3598" d="M126.229,84.165c-1.869-0.536-3.777,0.532-4.259,2.395c-0.484,1.853,0.641,3.793,2.509,4.329c1.873,0.537,3.78-0.532,4.266-2.386C129.229,86.639,128.101,84.7,126.229,84.165z" fill="#000000" stroke-width="none" opacity="0.8"></path><path id="SvgjsPath3599" d="M126.229,84.165c-1.869-0.536-3.777,0.532-4.259,2.395c-0.484,1.853,0.641,3.793,2.509,4.329c1.873,0.537,3.78-0.532,4.266-2.386C129.229,86.639,128.101,84.7,126.229,84.165z" fill="none" stroke="#4d3009" stroke-width="0.75" opacity="1"></path><path id="SvgjsPath3600" d="M118.805 92.044c0.868 1.378 2.021 2.416 3.653 2.762 1.879 0.398 2.094-2.101 0.748-2.387 -1.02-0.215-1.667-0.715-2.199-1.561C120.032 89.31 118.022 90.803 118.805 92.044L118.805 92.044z" fill="#ffffff" stroke-width="none" opacity="0.5"></path><path id="SvgjsPath3601" d="M126.461 83.449c1.316 0.265 2.082 1.087 2.747 2.323 1.222 2.272 4.676 0.252 3.453-2.019 -1.073-1.995-2.86-3.703-5.138-4.162C124.608 79.004 124.199 82.993 126.461 83.449L126.461 83.449z" fill="url(#SvgjsLinearGradient3602)" opacity="1"></path></g></g></g><g id="svga-group-eyesfront-right"><path id="SvgjsPath3470" d="M126 62.999c-9.94 0-18 11.193-18 25.001 0 13.808 8.06 24.999 18 24.999S144 101.808 144 88C144 74.191 135.94 62.999 126 62.999zM131.624 92.025c-3.031 0.914-6.378 0.959-10.688 0.204 -2.497-0.438-6.105-1.323-8.395-3.143 2.748-3.11 7.836-5.091 12.788-5.71 3.541-0.443 11.175-0.123 14.89 0.154C138.812 87.2 134.751 91.083 131.624 92.025z" fill="#f0c7b1" stroke-width="none" opacity="1" stroke="none"></path><path id="SvgjsPath3471" d="M125.045 71.834c-10.416-0.043-18.875 6.635-18.902 14.92 -0.023 8.284 8.398 15.033 18.813 15.08 10.418 0.043 18.875-6.635 18.902-14.919C143.881 78.63 135.461 71.881 125.045 71.834zM131.624 92.025c-3.031 0.914-6.378 0.959-10.688 0.204 -2.497-0.438-6.105-1.323-8.395-3.143 2.748-3.11 7.836-5.091 12.788-5.71 3.541-0.443 11.175-0.123 14.89 0.154C138.812 87.2 134.751 91.083 131.624 92.025z" fill="url(#SvgjsRadialGradient3472)" opacity="1"></path><path id="SvgjsPath3476" d="M140.22 83.53c-3.715-0.277-11.349-0.597-14.89-0.154 -4.952 0.619-10.04 2.6-12.788 5.71 2.289 1.82 5.897 2.705 8.395 3.143 4.31 0.755 7.656 0.71 10.688-0.204C134.751 91.083 138.812 87.2 140.22 83.53z" fill="url(#SvgjsRadialGradient3477)" opacity="1"></path><path id="SvgjsPath3480" d="M117.096 82.293c0.703-0.442 0.893-0.613 2.555-1.214 4.373-1.295 6.854-1.662 12.986-1.384C131.17 79.641 120.881 80.256 117.096 82.293zM135.736 91.614c-1.154 0.617-2.689 1.205-2.664 1.196 2.734-1.164 4.678-0.564 7.531-6.058C139.092 89.163 138.727 89.895 135.736 91.614z" fill="#c27b55" stroke-width="none" opacity="1" stroke="none"></path><path id="SvgjsPath3481" d="M124.986 82.304c-3.645 0.285-5.742 0.8-8.719 2.564 -2.432 1.441-4.281 2.802-6.268 5.841 3.203 0.193 3.904 0.754 6.742 1.472 1.668 0.421 6.414 0.913 10.258 0.855 3.725-0.056 7.564-1.044 9.602-2.773 3.035-2.576 4.303-6.003 7.398-8.529C144 81.734 129.84 81.924 124.986 82.304zM131.273 91.753c-2.828 0.853-5.951 0.895-9.973 0.19 -2.33-0.409-5.697-1.234-7.834-2.933 2.564-2.902 7.313-4.751 11.934-5.328 3.305-0.413 10.428-0.114 13.895 0.144C137.98 87.251 134.191 90.874 131.273 91.753z" fill="#000000" stroke-width="none" opacity="1" stroke="none"></path></g></g><g id="svga-group-facehighlight-single" ><path id="SvgjsPath2753" d="M140.204 113.007c0.035 22.275-17.995 40.365-40.273 40.396 -22.274 0.036-40.361-17.993-40.396-40.272C59.501 90.857 77.53 72.77 99.808 72.735 122.083 72.701 140.171 90.73 140.204 113.007z" fill="url(#SvgjsRadialGradient2754)" opacity="1"></path><path id="SvgjsPath2757" d="M135,55.999c0,19.329-15.671,35-35,35c-19.329,0-35-15.671-35-35s15.671-35,35-35C119.329,20.999,135,36.67,135,55.999z" fill="url(#SvgjsRadialGradient2758)" opacity="1"></path></g><g id="svga-group-eyebrows-left" ><path id="SvgjsPath2778" d="M74.799 69.068c-4.425-0.475-21.252 3.714-21.252 3.714s16.789-6.74 23.757-5.667c5.188 0.798 14.397 5.077 12.706 7.339C88.649 76.275 84.408 70.1 74.799 69.068z" fill="#2a232b" stroke-width="none" opacity="1"></path></g><g id="svga-group-eyebrows-right" ><path id="SvgjsPath2779" d="M109.731 74.187c-1.713-2.292 7.592-6.31 13.546-6.804 7.117-0.59 22.914 4.085 22.914 4.085s-15.9-2.628-20.377-2.106C115.998 70.506 111.11 76.031 109.731 74.187z" fill="#2a232b" stroke-width="none" opacity="1"></path></g><g id="svga-group-nose-single" ><path id="SvgjsPath3605" d="M99.94,119.956c-1.906-0.058-5.298-2.021-4.893-3.788c0.375-1.641,2.509,0.598,4.961,0.618c2.452,0.02,5.381-1.442,5.725,0.204C106.288,119.647,103.011,120.053,99.94,119.956z" fill="#e1ac8f" stroke-width="none" opacity="1" stroke="none"></path><path id="SvgjsPath3606" d="M104.203,118.958c0.155,0.202,0.42,0.202,0.586-0.002c0.169-0.204,0.178-0.533,0.02-0.734c-1.15-1.481-3.219,0.505-3.064,0.71C101.804,119.011,103.336,117.853,104.203,118.958z M95.633,115.186c0.242,1.576,0.743,3.678,4.771,4.779c-3.972-0.117-6.554-0.855-6.533-4.551c0.011-1.867,1.964-5.712,1.964-5.712S95.378,113.521,95.633,115.186z" fill="#c27b55" stroke-width="none" opacity="1" stroke="none"></path></g><g id="svga-group-hair-front" ><path id="SvgjsPath3514" d="M150.536 25.403c-4.741-3.492-102.496 0.66-106.053 6.026 -3.095 4.669-5.953 201.255-5.415 201.307 13.762 1.102 54.916 0.905 84.53 0.322 -20.37-0.815-65.039-2.604-65.73-2.647 -1.51-13.299 0.879-25.21 2.197-31.78 0.292-1.457 0.523-2.607 0.653-3.493l0.018-0.149c0.374-3.886-0.369-7.235-1.155-10.783 -1.063-4.802-2.164-9.768-0.535-16.956 2.272-9.979 0.651-16.863-0.652-22.394 -0.511-2.169-0.952-4.042-1.084-5.788 -0.321-4.254 1.54-6.744 3.694-9.627 3.362-4.498 5.296-13.562-0.242-21.273 -4.427-6.164-3.506-8.024-2-11.285 1.528-3.307 3.621-7.836 1.191-16.552 -1.792-6.433-4.245-15.242 12.881-25.936 5.585-3.49 11.217-5.638 16.186-7.532 6.306-2.405 14.805-9.398 17.373-13.863 1.129 10.719 8.307 21.317 13 26.186 6.438 6.678 11.522 11.953 8.896 31.045 -1.111 8.072 0.54 11.878 1.995 16.285 0.641 1.942 1.606 3.95 2.175 6.636 0.938 4.389-0.032 8.534-1.38 12.923 -1.183 3.852-1.258 7.804-1.194 12.326 0.868-2.639 3.764-7.495 4.222-10.647 1.211-8.33 2.671-54.157 2.562-59.365 8.608 7.931 10.412 19.654 8.529 27.097 -0.884 3.493-2.854 16.106-3.17 20.192 -0.634 8.184 0.318 6.299-0.072 11.659 -0.377 5.236-2.24 7.948-5.521 13.484 -7.595 12.969-4.483 20.459-1.474 27.701 1.122 2.703 2.283 5.498 2.88 8.653 1.168 6.055-1.128 14.71-3.349 23.079 -2.135 8.046-4.342 16.365-3.691 23.151 0.157 1.614 1.796 6.247 2.587 9.436 11.055-0.276 19.3-0.602 21.865-0.909C164.055 230.876 159.709 32.162 150.536 25.403z" fill="#a68469" stroke-width="none" opacity="0.1" stroke="none"></path><path id="SvgjsPath3515" d="M169.869 60.508c-0.362-12.689-3.053-23.544-8.009-32.294 -1.234-6.369-3.748-14.487-12.301-20.789 -4.509-3.321-13.655-6.862-22.288-8.637 -11.658-10.772-12.372-1.202-24.682-6.167 -2.892-1.167-4.909-1.963-9.505 1.111C86.8-7.859 79.736-8.007 75.268-7.146c-4.864 0.936-11.252 4.118-15.943 7.938 -7.968 2.15-13.645 5.709-16.873 10.579 -2.887 4.356-4.261 9.144-4.094 14.279 -1.49 3.06-2.376 6.316-2.809 10.294 -2.715 3.779-5.582 8.563-7.648 12.626 -1.816 3.554-4.911 20.048-3.206 27.254 -11.978 21.314-3.928 31.087 0.975 48.8 -3.591 8.407-3.569 16.054 0.075 24.855 -4.106 16.166-8.669 18.491-4.531 58.299 2.25 21.647 1.324 22.279 1.324 28.127l0.099-0.1c11.194-0.084 16.572-3.733 22.877-2.95 0.961 0.058 9.621 0.832 9.902 0.86 79.66 6.379 73.197-1.353 117.21-2.088 -0.826-8.102-1.776-30.404-0.356-39.298 2.088-13.115 0.093-28.495-3.729-39.602 4.314-8.119 3.907-12.246 1.163-20.445 5.543-16.211 7.897-24.442 4.45-39.741C178 81.442 175.792 70.778 169.869 60.508zM144.449 111.603c-0.368 5.307 0.889 10.623 0.5 15.949 -0.439 6.104-2.762 9.407-5.924 14.784 -9.617 16.422-0.494 22.32 1.763 34.271 2.469 12.793-8.264 33.33-6.999 46.509 0.24 2.47 1.669 8.576 2.203 10.877 -20.207 2.284-69.317 0.086-80.78-0.753 -2.633-17.772 1.835-33.757 2.538-38.538 0.814-8.465-4.608-14.97-1.628-28.118 3.006-13.198-1.294-20.579-1.802-27.29 -0.995-13.187 15.039-13.541 3.982-29.412 -9.902-14.226 3.372-12.214-1.236-28.745 -1.813-6.509-4.848-17.403 14.181-29.285 15.132-9.456 29.464-9.046 35.386-20.671 6.172 32.455 28.681 22.744 23.63 59.46 -1.484 10.782 1.529 12.874 3.435 21.885 1.966 9.198-4.088 16.658-3.958 25.865 2.464-7.486 8.896-14.549 9.09-22.357 0.149-6.206-2.432-12.186-2.38-18.408 0.039-4.968 1.508-9.806 2.281-14.635 3.709-23.063-15.682-23.835-20.418-41.599l0.181-0.08c11.219 17.313 20.093 22.563 26.204 33.756C152.855 90.043 145.316 98.718 144.449 111.603z" fill="#a68469" stroke-width="none" opacity="1" stroke="none"></path><path id="SvgjsPath3516" d="M143.389 232.876c-2.452 0.381-4.644 0.709-7.109 0.989 -2.531-12.35-3.045-13.858 2.05-31.18 7.57-25.69 4.73-26.74 0.65-38.74 -5.181-15.21 4.37-19.42 7.64-29.62 1.85-5.8 1.13-11.689 0.49-17.62 -1.48-13.91 6.319-22.229 2.01-35.6 -4.74-14.729-16.45-19.648-31.05-41.09 -0.447-1.921-0.756-3.948-0.994-5.991 12.929 20.478 35.727 30.946 36.127 46.41C153.484 91.333 147.356 114.1 150 129c1.61 9.078-7 15-9 24 -3 12 9 22 5 33C140.088 200.357 138.928 216.401 143.389 232.876zM48 58c-9 11 1 25-5 38 -6 11 6 25-1 38 -3 7 4.152 14.053 2 20 -9.725 26.87-4.821 52.515-4.118 78.772 2.261-0.43 3.779-0.542 5.427-0.478 0.711-14.813-4.411-25.97-4.76-32.6 -0.36-7.04 2.95-11.53 4.16-17.45 1.71-8.41-0.38-18.63 2.66-26.58 1.9-5.42-1.33-11.069-1.99-16.26 -0.88-6.85 2.81-13.13 2.82-17.51 -0.61-7.38-4.41-11.37-3.86-17.52 0.32-3.68 1.82-6.93 3.18-10.31 4.1-10.23-0.47-12.2-1.03-21.02 -1.134-17.688 28.974-36.711 52.436-41.572C78.902 29.774 58.916 43.446 48 58zM46.397 36c-8.96 9.083-8.372 19.86-9.284 32.735 -0.721 10.172-12.931 19.243-10.958 29.098 3.909 19.52 9.418 32.397 4.963 53.628C30.013 156.731 32.397 163 32.397 168c-3.14 9.376-3.573 18.985-3.567 29.406 -0.07 10.373 0.408 20.797 2.567 31.594 0.362 2.175 0.196 4.218-0.159 6.225 1.085-0.164 2.188-0.383 3.448-0.68 3.02-15.189-3.05-39.63-1.45-47.81 1.745-9.261 4.592-10.646 3.81-20.88 -0.4-4.93-1.25-11.351-1.31-15.92 -0.203-14.404 7.428-20.775 2.43-33.32 -1.01-2.54-2.12-5.03-3.12-7.58 -5.219-13.284 1.624-20.396 5.8-30.74 2.32-5.73 2.25-7.87 1.55-14.79 -0.86-8.55-2.01-20.78 20.57-35.22 13.107-8.382 25.148-8.831 34.88-8.774C76.992 15.055 59.202 23.021 46.397 36zM97.211 6.536c-7.054-1.657-14.23-2.682-21.512-2.08C57.487 5.947 38.816 16.979 37.113 36.63 45.702 11.883 69.947 0.867 97.211 6.536zM126.834 59.708c-5.874-6.638-20.763-20.441-17.904-36.563 -0.251 2.617-1.317 6.185-2.091 7.821 5.657 26.844 24.4 25.05 26.021 46.982C133.567 74.046 129.607 62.841 126.834 59.708zM101.876 33.946c0.041 0.02 0.083 0.035 0.124 0.054C101.959 33.98 101.917 33.965 101.876 33.946 84.761 44.678 55.85 46.235 51 70c-1.266 6.203 5.054 18.03 0 27 -3.958 7.024 4 17 4 23s-4 11-5 18c-1 5 2 9 3 14 1 6-3 12-2 17 4.173 33.465-7.631 24.573 0.82 63.868 0.959 0.086 2.033 0.173 3.259 0.257 -0.94-5.08-1.69-12.63-0.83-22.75 1.54-18.06 4.07-11.92 0.51-27.25 -2.9-12.489-0.23-14.09 0.31-22.02 0.5-7.36-1.8-13.96-2.73-18.4 -3.18-15.12 9.72-17.31 6.69-26.25 -0.85-2.5-2.52-4.67-3.95-6.85 -7.58-11.968 1.421-13.924 0.8-23.23 -0.46-7.12-7-16.73 5.86-28.91 17.35-16.43 39.143-11.955 46.267-28.633C106.397 30.294 103.656 32.83 101.876 33.946zM158 190c1-9-1.131-17.628-4.131-26.628 -2-10 6.6-15.637 8.115-25.099 1.807-11.278-6.729-20.634 0.034-36.93 7.657-18.449 3.6-35.793-8.482-43.848 -14.671-10.086-23.385-20.865-30.952-37.156 6.736 35.057 29.35 37.938 35.255 56.606 3.95 12.48-3.89 22.5-2.939 36.31 0.405 5.96 2.941 11.623 2.12 17.69 -1.49 10.87-12.12 17.31-9.79 30.95 1.029 6.05 3.39 11.72 3.92 17.88 0.83 9.51-0.96 19.1-0.15 29.01 0.68 8.32 2.12 6.311 0.061 22.931 2.061-0.275 7.131-0.378 9.207-0.4C157.498 217.629 155.476 203.462 158 190zM114.267 8.481c10.364 3.309 12.499 13.877 25.333 24.504 5.42 4.5 15.6 9.53 23.989 18.8C150.646 34.024 125.583 8.481 114.267 8.481zM118.217 4.263c10.112-0.064 16.552 1.334 26.813 7.022 6.78 3.76 11.77 8.8 15.439 14.44C157.241 15.567 137.471-1.315 118.217 4.263zM169.249 130.686c4.75-16.351 6.351-25.88 4.51-36.75C169.27 105.867 163.235 112.89 169.249 130.686zM35.299 37.855c-5.1 8.58-7.65 19.96-8.21 23.7 -0.6 4.08-2.06 8.23-1.4 12.31C36.633 54.878 34.126 54.672 35.299 37.855zM29 229c-10.555-46.603 5.569-64.086-1.815-77.539 -5.86 19.443-7.903 20.479-4.996 59.664 0.79 10.69 0.7 19.11 0.46 24.561 2.485-0.057 4.312-0.176 6.192-0.461C29.196 233.218 29.487 231.15 29 229zM25.959 125.936c-1.901 6.5-1.314 13.373 0.51 19.979C28.109 137.985 27.759 132.695 25.959 125.936zM171.339 179.025c-0.239-11.98-1.58-19.57-3.31-25.15 -3.13 5.67-6.88 11.181-5.88 17.811 0.37 2.439 1.16 4.75 1.67 7.149 1.76 8.311-1.98 13.41-0.58 26.7 0.524 4.947 2.555 9.557 1.95 25.931 4.36 0.118 5.382 0.02 6.93 0.02C167.447 194.645 171.56 190.19 171.339 179.025z" fill="#976f50" stroke-width="none" opacity="1" stroke="none"></path><path id="SvgjsPath3517" d="M41.174 37.035c2.742-4.962 5.685-9.62 9.504-13.836C68.75 3.245 94.287 10.679 98.519 10.509c-2.453 0.099-17.337-2.904-31.718 2.782C52.353 19.005 46.163 28.773 41.174 37.035zM82.104 15.495c9.209-0.041 19.252 3.171 20.252 3.641 -1.345-0.632-11.848-4.331-19.82-4.332 -7.33-0.001-14.298 2.961-20.784 6.078C68.208 18.053 74.954 15.527 82.104 15.495zM94.503 24.398c0.243-0.031 6.921-0.762 7.033-0.548 -0.046-0.089-1.342 0.007-1.454 0.007C75.188 23.911 50.574 37.095 43.97 57.105 51.898 36.451 78.067 26.495 94.503 24.398zM85.715 29.512c-4.868 1.411-9.764 3.261-14.134 5.861 1.722-1.024 3.72-1.784 5.575-2.521 14.368-5.716 22.167-4.655 23.782-4.583C95.832 27.849 90.673 28.075 85.715 29.512zM55.795 57.449c7.657-10.578 30.801-16.698 42.709-23.107C85.168 40.917 64.906 44.861 55.795 57.449zM23.802 90.407c-1.925 6.5 1.442 17.037 3.641 23.509 -1.452-4.276-4.294-16.879-2.45-22.924 2.54-8.321 8.077-15.33 10.361-23.765C32.245 76.654 25.938 83.204 23.802 90.407zM49.345 135.376c-0.227 0.832-0.669 1.795-0.712 2.659 0.033-0.666 0.549-1.511 0.779-2.123 4.786-12.716 5.62-16.075-0.64-28.802C52.467 116.524 53.679 119.49 49.345 135.376zM37.69 168.502c-0.001 0.172 0.073 3.122 0.156 3.272 -0.137-0.247 0.005-0.952 0.01-1.22 0.255-13.385 6.896-18.12 1.553-32.456C43.457 152.001 37.798 153.163 37.69 168.502zM49.653 184.464c-0.634 5.103-3.229 12.69-3.403 22.732 -0.023 1.294 0.233 2.588 0.209 3.877 0.028-1.552-0.07-3.089 0.032-4.643 0.482-7.301 2.122-11.081 3.062-16.426 2-10.691 0.184-12.236-0.424-23.268C49.161 173.583 50.294 179.311 49.653 184.464zM40.77 114.267c2.006 7.65 1.53 8.484 1.664 12.785 -0.051-1.65 0.944-3.732-1.023-13.009 -4.891-23.038 3.681-14.839 1.697-37.635C44.065 99.736 34.9 91.875 40.77 114.267zM125.891 58.415c15.459 19.39 2.691 37.278 8.563 47.381 -4.495-7.73 3.611-22.904-2.03-38.349 -3.499-9.572-12.808-15.293-17.928-25.886 -2.552-5.281-4.697-10.585-5.044-16.489C109.978 41.711 122.734 54.458 125.891 58.415zM129.333 48.056c2.588 2.805 5.433 5.618 8.623 7.742 -1.244-0.828-2.352-1.974-3.421-3.006 -15.846-15.29-16.277-27.594-17.245-34.801C118.533 32.05 120.594 38.583 129.333 48.056zM134.563 34.623c9.546 12.754 41.372 29.817 34.61 53.113 0 0.001-2.097 6.627-2.097 6.627 4.98-11.852 5.456-20.782-3.651-33.489 -8.378-11.687-21.297-17.214-29.644-27.799 -1.334-1.69-2.464-3.507-3.701-5.264C131.491 30.155 132.922 32.431 134.563 34.623zM160.783 35.442c-4.209-14.69-21.029-26.19-38.988-26.627C141.068 10.293 157.798 25.022 160.783 35.442zM102.187 31.702c4.048-3.483 6.929-6.043 8.311-19.639C109.441 19.675 107.764 26.903 102.187 31.702zM164.052 138.794c-0.281 7.611-3.443 11.155-5.54 16.217 -4.702 11.349 0.976 19.192 2.015 28.62 0.008 0.071 0.301 3.063 0.243 3.104 0.022-0.017-0.018-0.352-0.019-0.381 -0.194-12.388-6.224-19.056-1.091-31.181 4.217-9.965 7.672-12.175 2.237-32.578C162.678 126.498 164.282 132.588 164.052 138.794zM144.194 166.221c4.157 11.405 3.104 10.781 3.585 13.183 -0.029-0.145-0.092-2.743-0.735-5.67 -1.496-6.817-4.767-12.746-3.954-20.787 0.792-7.821 6.467-13.167 6.969-20.287 0.159-2.253-0.13-4.347-0.534-6.555C152.103 144.283 136.115 144.075 144.194 166.221zM151.224 99.355c-0.246 1.197-0.356 2.542-0.758 3.696 0.989-2.848 1.554-5.983 2.193-8.922 3.32-15.236-0.084-20.154-9.51-32.352C151.327 73.808 155.731 77.462 151.224 99.355z" fill="#b59a85" stroke-width="none" opacity="1" stroke="none"></path><path id="SvgjsPath3518" d="M174.649 71.396c-1.21-4.07-2.811-7.67-4.681-10.89 -0.279-9.79-2.09-21.87-8.01-32.31 -1.32-6.81-3.939-14.66-12.34-20.85 -4.44-3.27-13.45-6.83-22.28-8.63 -6.33-5.85-8.89-5.88-14.489-4.94 -11.091 1.85-11.421-5.86-19.74-0.14 -6.2-1.57-13.29-1.76-17.86-0.88 -4.94 0.95-11.31 4.15-15.94 7.94 -0.01 0-0.01 0-0.01 0 -7.19 1.94-13.41 5.31-16.93 10.62 -3.32 5.01-4.25 9.98-4.1 14.29 -1.68 3.45-2.44 6.86-2.8 10.28 -3.09 4.3-5.94 9.27-7.57 12.47 -1.923 3.763-5.022 20.157-3.29 27.42 -1.72 3.06-3.26 6.03-4.22 8.93 -0.93 2.81-1.52 5.59-1.86 8.53 -0.59 5.27 0.36 10.87 2.01 15.87 2.12 6.41 3.84 11.26 5.04 15.479 -3.87 9.061-3.32 16.73 0.07 24.87 -0.76 2.99-1.76 6.351-3.02 10.25 -7.25 22.391 0.01 48.86-0.01 69.08 0 1.9-0.08 4.48-0.17 6.91 -0.01 0.07-0.01 0.14-0.01 0.21 0.07 0.01 0.13 0.01 0.2 0 4.06-0.03 6.17-0.24 9.56-0.96 0.09-0.02 0.18-0.04 0.28-0.06 1.15-0.25 2.46-0.561 4.04-0.931 4.12-0.97 5.87-1.189 8.76-1.02 0.07 0 0.15 0.01 0.23 0.02 2.14 0.13 4.93 0.46 9.7 0.84 0.07 0.011 0.13 0.011 0.2 0.021 3.24 0.26 7.38 0.55 12.83 0.81 6.13 0.261 12.24 0.7 18.37 1.021 10.01 0.52 20.029 0.84 30.05 0.49 6.38-0.221 12.91-0.631 19.41-1.41 0.12-0.01 0.24-0.03 0.37-0.04 2.92-0.36 5.83-0.78 8.72-1.311 2.06-0.37 3.82-0.659 5.35-0.89 0.16-0.02 0.311-0.04 0.46-0.06 6-0.851 8.65-0.7 13.65-0.641 0.18 0 0.37 0.01 0.56 0.01 1.9 0.011 4.131 0.011 6.98-0.06 0.19 0 0.38-0.01 0.58-0.01 -0.01-0.08-0.021-0.16-0.021-0.25 -1.149-13.17-1.54-31.67-0.35-39.13 1.79-11.24 0.66-22.971-2.06-33.99 -0.521-2.101-1.08-3.93-1.681-5.58 1.17-2.2 2.19-4.43 2.76-6.78 1.221-5.02-0.06-9.17-1.59-13.68 2.94-8.6 5.91-18.49 6.051-23.85 0.17-6.48-0.74-12.141-1.601-15.891C176.279 86.715 177.27 80.215 174.649 71.396zM27.089 61.555c0.56-3.74 3.11-15.12 8.21-23.7 -0.5 7.17 0.26 14.42-2.62 22.28 -1.74 4.77-4.46 9.34-6.99 13.73C25.029 69.785 26.489 65.635 27.089 61.555zM25.459 127.926c0.14-0.681 0.31-1.341 0.5-1.99 1.8 6.76 2.15 12.05 0.51 19.979C24.959 140.445 24.119 134.205 25.459 127.926zM113.27 235.035c-10.65 0.22-21.41-0.25-32.05-0.79 -6.38-0.319-12.75-0.54-19.13-0.76 -2.69-0.09-4.92-0.21-6.79-0.34 -2.69-17.61 1.98-34.561 2.55-38.43 0.82-8.521-4.61-14.961-1.63-28.11 3.02-13.26-1.29-20.58-1.8-27.32 -0.79-10.47 9-12.41 7.78-21.569 -0.83-6.33-7.67-10.351-7.67-16.9 0.9-6.27 5.1-8.33 3.23-17.38 -1.23-5.98-7.92-18.1 13.54-31.5 14.98-9.36 29.52-9.16 35.29-20.45 1.33 7.07 3.63 13.89 8.96 20.24 3.82 4.51 8.45 8.44 11.53 13.55 6.62 11.01 2.94 23.7 2.63 29.3 -0.359 6.38 2.601 11.88 3.891 17.97 1.329 6.221-1.101 11.99-2.79 17.87 -0.801 2.79-1.131 5.24-1.16 7.33 -0.021 0.42-0.011 0.82 0.01 1.2 0.07-0.2 0.13-0.4 0.2-0.6 2.92-8.19 8.88-14.63 9.069-22.311 0.15-6.24-2.43-12.18-2.38-18.41 0.04-4.97 1.5-9.75 2.28-14.62 3.42-21.26-12.75-23.67-19.05-37.72 -0.55-1.22-1-2.53-1.37-3.92 1.03 1.59 2.09 3.15 3.18 4.7 9.32 13.23 17.49 18.92 23.021 29.05 8.14 14.94 0.609 23.57-0.26 36.48 -0.37 5.34 0.89 10.62 0.5 15.949 -0.44 6.11-2.83 9.49-5.91 14.74 -8.48 14.48-2.551 20.44 1.149 31.681 0 0.01 0 0.01 0.011 0.02 0 0.01 0 0.02 0.01 0.04 0.06 0.29 0.399 1.64 0.58 2.6 2.47 12.801-8.271 33.25-7 46.5 0.189 1.95 1.149 6.391 2.18 10.78C130.929 234.445 124.789 234.806 113.27 235.035zM171.339 179.025c0.23 11.67-3.779 13.76 0.62 51.21 0.05 0.36 0.101 0.78 0.16 1.25 -0.48 0-0.95 0.01-1.42 0.02 -1.84 0.04-3.67 0.011-5.51-0.039 0.1-2.7 0.12-5.761 0.01-9.211 -0.37-11.609-1.271-10.21-1.96-16.72 -1.4-13.29 2.34-18.39 0.58-26.7 -0.51-2.399-1.3-4.71-1.67-7.149 -1-6.63 2.75-12.141 5.88-17.811C169.759 159.455 171.1 167.045 171.339 179.025zM168.069 146.136c-0.3 0.93-0.641 1.85-1.03 2.75 -0.13 0.33-0.28 0.67-0.43 1 -1.91 4.26-4.44 8.229-5.99 12.649 -2.75 7.811 0.18 13.36 0.98 16.62 1.52 6.19-0.32 12.65-0.351 18.9 -0.04 11 3.44 12.34 3.37 33.39 -4.53-0.13-9.07-0.33-13.56 0.271 2.06-16.62 0.619-14.61-0.061-22.931 -0.81-9.91 0.98-19.5 0.15-29.01 -0.53-6.16-2.891-11.83-3.92-17.88 -2.33-13.641 8.3-20.08 9.79-30.95 0.13-0.96 0.18-1.92 0.159-2.87 -0.09-4.99-1.939-9.82-2.279-14.82 -0.95-13.81 6.89-23.83 2.939-36.31 -6.029-19.06-29.489-21.64-35.67-58.84 3.47 25.44 14.351 33.64 24.71 45 20 21.96 3.63 30.33 5.391 51.55 0.47 5.57 2.88 11.29 1.52 16.89 -2.63 9.311-10.47 16.801-9.56 27.45 0.54 6.36 3.43 12.23 4.51 18.49 2.16 12.51-1.101 19.68 1.97 37.56 0.851 4.91 0.49 10.801-0.13 16.73 -6.11 0.89-9.729 1.57-14.3 2.09 -0.5-2.439-1-5-1.44-7.399 -1.46-7.98 1.261-16.2 3.49-23.78 7.57-25.69 4.73-26.74 0.65-38.74 -5.181-15.21 4.37-19.42 7.64-29.62 1.85-5.8 1.13-11.689 0.49-17.62 -1.48-13.91 6.319-22.229 2.01-35.6 -3.73-11.59-13.66-19.41-21.34-28.31 -3.51-4.06-6.7-8.36-9.71-12.78 -1.5-6.45-1.561-14.06-1.95-19.64 0.21 5.86-0.04 12.16 0.94 18.12 0.05 0.35 0.109 0.7 0.18 1.05 0.58 3.08 1.52 6.07 3.06 8.84 4.49 8.07 13.801 14.1 16.28 22.24 2.65 10-2.31 18.25-1.78 27.66 0.351 6.24 3.13 12.181 2.96 18.47 -0.17 6.2-5.109 12.65-7.8 20.061 0.75-7.42 5.58-14.46 5-22.16 -0.46-6.08-3.56-11.66-3.689-17.79 -0.12-5.9 4.8-18.29-1.62-30.31 -5.641-10.57-16.391-14.29-21.19-29.38 -0.649-2.04-1.18-4.12-1.62-6.21 0.771-1.63 1.37-3.5 1.771-5.66 0.22-1.21 0.39-2.52 0.479-3.93 -0.319 3.73-1.13 6.74-2.319 9.21 -0.091 0.17-0.17 0.34-0.25 0.5 -7.3 13.98-27.811 10.31-44.78 26.38 -12.86 12.18-6.32 21.79-5.86 28.91 0.08 1.2-0.02 3-0.2 3.81 -2.05 6.79-6.75 9.71-0.6 19.42 1.43 2.18 3.1 4.35 3.95 6.85 3.03 8.94-9.87 11.13-6.69 26.25 0.93 4.44 3.23 11.04 2.73 18.4 -0.54 7.93-3.21 9.53-0.31 22.02 3.56 15.33 1.03 9.19-0.51 27.25 -0.86 10.12-0.11 17.67 0.83 22.75 -4.84-0.33-7.34-0.72-9.52-0.819 0.37-4.88 0.21-11.96-1.82-21.521 -0.66-3.08-1.59-6.14-1.94-9.28 -0.97-8.659 3.67-13.3 4.8-20.64 1.32-8.6 0.35-18.29 2.66-23.939 2.54-6.2-0.1-10.631-1.05-16.011 -2.17-12.26 6.13-12.58 0.27-27.8 -2.74-7.11-2.45-9.54-0.31-15.15 1.21-3.2 2.41-6.25 2.91-9.66 1.23-8.52-9.8-15.96 4.03-32.5 12.27-14.69 33.52-22.52 44.06-24.38 -24.02 3.87-53.765 23.204-52.68 41.62 0.718 12.194 5.194 8.275 1.03 21.02 -1.131 3.463-2.86 6.63-3.18 10.31 -0.55 6.15 3.25 10.14 3.86 17.52 -0.01 4.38-3.7 10.66-2.82 17.51 0.66 5.19 3.89 10.84 1.99 16.26 -3.04 7.95-0.95 18.17-2.66 26.58 -1.21 5.92-4.52 10.41-4.16 17.45 0.16 3.03 1 5.96 1.76 8.88 2.81 10.771 3.25 18.51 3 23.72 -2.79-0.109-5.19 0.28-11.5 1.881 -0.43 0.109-0.84 0.21-1.23 0.3 2.96-13.15-0.74-34.23-0.48-44.141 0.15-5.68 3.55-12.09 4.53-17.199 1.13-5.94-1.18-16.721-0.53-25.051 0.68-8.58 2.6-11.8 3.97-17.83 2.89-12.81-4.81-18.869-6.25-28.049 -1.51-9.55 6.76-18.69 8.54-28.86 1.84-10.54-6.38-20.18 7.73-35.03 17.72-18.67 37.6-18.53 48.35-18.78 -10.2-0.09-23.39-0.51-37.87 8.75 -22.58 14.44-21.43 26.67-20.57 35.22 0.7 6.92 0.77 9.06-1.55 14.79 -2.14 5.3-4.97 9.74-6.53 14.59 -1.49 4.64-1.82 9.66 0.73 16.15 1 2.55 2.11 5.04 3.12 7.58 0.45 1.13 0.9 2.33 1.16 3.521 0.07 0.33 0.37 1.79 0.43 1.939 0.9 10.36-4.19 15.76-4.02 27.86 0.06 4.569 0.91 10.99 1.31 15.92 0.17 2.229 0.25 4.149 0.13 5.46 -0.46 4.89-2.83 9.53-3.94 15.42 -1.6 8.18 4.47 32.62 1.45 47.81 -3.44 0.811-5.72 1.051-9.64 1.141 0.24-5.45 0.33-13.87-0.46-24.561 -1.34-18.06-3.03-33.71 1.85-49.5 1.09-3.52 2.06-6.569 2.89-9.319 0.27-0.87 0.52-1.721 0.75-2.53 2.76-9.7 3.33-16.01-0.12-28.17 -0.06-0.23-0.13-0.47-0.2-0.71 -0.47-1.63-1.01-3.36-1.63-5.22 -4.55-13.67-7.18-21.67-0.22-36.021 0.26-0.55 0.54-1.11 0.84-1.68 0.17-0.33 0.34-0.66 0.52-0.99 3.78-7.04 8.31-14.3 9.43-22.38 0.96-6.91 0.15-13.47 1.02-19.95 0.06-0.51 0.14-1.02 0.23-1.53 0.25-1.39 0.59-2.78 1.05-4.17 0.16-0.47 0.33-0.94 0.52-1.41 0.96-2.44 2.34-4.87 4.32-7.32 7.68-9.49 20.29-14.79 32.26-15.77 11.01-0.91 21.78 1.89 32.25 4.99 -10.66-3.41-21.62-6.44-32.93-5.63 -7.45 0.52-15.12 2.74-21.75 6.57 -3.76 2.16-7.19 4.84-10.06 8.02 -1.62 1.79-2.91 3.56-3.94 5.32 0.54-4.66 2.35-9.17 5.52-12.66 2.55-2.82 6.34-5.05 10.81-6.74 0.42-0.16 0.85-0.32 1.29-0.47 13.39-4.65 32.04-4.78 41.79-1.59 2.5 0.82 4.86 1.79 7.25 2.86 -2.229-1.17-4.449-2.22-6.79-3.15 -3.11-1.24-7.39-2.23-12.24-2.82 -0.04-0.01-0.08-0.02-0.12-0.02 -7.49-0.9-16.34-0.83-24.35 0.82 2.52-1.47 5.18-2.7 7.48-3.53 7.47-2.51 13.74-2.78 20.5-2.07 0.48 0.06 0.97 0.12 1.46 0.19 0.3 0.04 0.6 0.09 0.9 0.13 4.33 0.67 8.91 1.97 11.68 5.44 -1.94-2.92-5.87-4.96-10.4-6.23 3.57-2.06 5.04-1.4 10.57 1.07 2.54 1.13 5.06 1.4 7.81 1.03 5.351-0.74 6.75-1.85 12.471 2.27 -8.311-1.38-16.07-1.02-19.28 2.82 -0.14 0.17-0.28 0.35-0.4 0.53 3.7-4.46 12.721-4.07 21.931-1.63 0.7 0.18 1.41 0.38 2.12 0.59 8.18 2.41 16.189 6.28 20.439 9.62 6.351 5.01 9.08 10.24 10.76 15.54 -3.67-5.64-8.659-10.68-15.439-14.44 -3.68-2.04-6.87-3.54-9.94-4.61 -0.08-0.03-0.17-0.06-0.25-0.08 -5.77-1.99-11.13-2.48-18.54-2.31 2.971 0.11 5.86 0.28 8.811 0.68 10.81 1.46 19.54 7.1 27.17 14.37 3.81 3.63 8.13 10.5 11.479 18.97 2.431 6.18 4.351 13.22 5.17 20.47 -1.149-1.81-2.39-3.5-3.689-5.07 -1.08-8.84-3.66-17.23-12.851-25.45 -3.68-3.3-7.829-5.56-12.22-7.75 4.25 2.46 8.33 5.1 11.71 8.72 6.63 7.1 9.91 15.51 11.71 22.56 -8.39-9.27-18.569-14.3-23.989-18.8 -8.9-7.37-13.9-15.68-18.7-20.12 -2.05-1.88-4.28-3.27-6.78-4.46 1.87 0.97 3.62 2.01 5.24 3.38 1.63 1.38 3.06 3.02 4.41 4.69 0.189 0.24 0.38 0.48 0.569 0.72 6.3 7.97 10.65 14.53 22.521 22.64 6.859 4.69 13.01 9.95 17.72 16.41 0.37 0.51 0.72 1.02 1.07 1.54 1.38 2.04 2.609 4.2 3.68 6.49 0.23 0.49 0.45 0.98 0.66 1.48 0.16 0.38 0.32 0.76 0.47 1.15 1.521 3.84 2.73 8.06 3.05 12.21 0.091 3.32-0.189 5.9-0.83 8.38 -0.05 0.22-0.109 0.44-0.17 0.66 -0.83 2.91-2.14 5.78-3.899 9.66 -10.221 22.42-3.7 29.99-1.07 38.59 0.13 0.43 0.25 0.86 0.36 1.3C168.539 140.235 168.759 142.915 168.069 146.136zM169.249 130.686c-1.439-4.26-2.86-8.94-2.49-15.03 0.511-8.49 4.37-14.73 7-21.72C175.6 104.805 173.999 114.335 169.249 130.686z" fill="#784b28" stroke-width="none" opacity="1" stroke="none"></path></g><g id="svga-group-glasses-single" ><path id="SvgjsPath2880" d="M100,18.13L100,18.13L100,18.13L100,18.13z" fill="#26120b" stroke-width="none" opacity="1"></path></g></g></g><rect id="SvgjsRect1033" width="200" height="15" x="0" y="185" fill="#ecf0f1" opacity="0.5" style="display:none;"></rect><text id="SvgjsText1034" font-family="&quot;Roboto&quot;, &quot;Helvetica Neue&quot;, Helvetica, Arial, sans-serif" style="font-size:0.84em;font-family:&quot;Roboto&quot;, &quot;Helvetica Neue&quot;, Helvetica, Arial, sans-serif;text-anchor:middle;font-weight:400;display:none;" font-size="0.84em" text-anchor="middle" font-weight="400" fill="#000000" x="100" y="185"><tspan id="SvgjsTspan1035" dy="1.2em" x="100" style="font-size:0.84em;font-family:&quot;Roboto&quot;, &quot;Helvetica Neue&quot;, Helvetica, Arial, sans-serif;text-anchor:middle;font-weight:400;">Creato con creaavatar.it</tspan></text></g><defs id="SvgjsDefs1001"><radialGradient id="SvgjsRadialGradient2754" cx="100" cy="113" r="40" gradientUnits="userSpaceOnUse" class="svga-on-canvas-facehighlight-gradient-single-0"><stop id="SvgjsStop2755" stop-opacity="0.5" stop-color="#ffe4d6" offset="0" ></stop><stop id="SvgjsStop2756" stop-opacity="0" stop-color="#f0c7b1" offset="0.9" ></stop></radialGradient><radialGradient id="SvgjsRadialGradient2758" cx="100" cy="57" r="36" gradientUnits="userSpaceOnUse" class="svga-on-canvas-facehighlight-gradient-single-1"><stop id="SvgjsStop2759" stop-opacity="0.5" stop-color="#ffe4d6" offset="0" ></stop><stop id="SvgjsStop2760" stop-opacity="0" stop-color="#f0c7b1" offset="0.9" ></stop></radialGradient><radialGradient id="SvgjsRadialGradient3360" cx="-558.588" cy="-490.918" r="84.646" gradientTransform="matrix(0.096 -0.0248 0.0245 0.0961 140.5478 120.3577)" gradientUnits="userSpaceOnUse" class="svga-on-canvas-eyesiris-gradient-left-1"><stop id="SvgjsStop3361" stop-opacity="0.8" stop-color="#ffffff" offset="0" ></stop><stop id="SvgjsStop3362" stop-opacity="0" stop-color="#ffffff" offset="1" ></stop></radialGradient><radialGradient id="SvgjsRadialGradient3364" cx="-565.337" cy="-492.691" r="84.644" gradientTransform="matrix(0.0991 8.856325e-004 -0.0011 0.0991 130.3774 136.3533)" gradientUnits="userSpaceOnUse" class="svga-on-canvas-eyesiris-gradient-left-2"><stop id="SvgjsStop3365" stop-opacity="0.8" stop-color="#ffffff" offset="0" ></stop><stop id="SvgjsStop3366" stop-opacity="0" stop-color="#ffffff" offset="1" ></stop></radialGradient><linearGradient id="SvgjsLinearGradient3370" x1="122.283" y1="93.047" x2="123.61" y2="91.466" gradientTransform="matrix(1 0 0 1 -52 0)" gradientUnits="userSpaceOnUse" class="svga-on-canvas-eyesiris-gradient-left-5"><stop id="SvgjsStop3371" stop-opacity="1" stop-color="#ffffff" offset="0" ></stop><stop id="SvgjsStop3372" stop-opacity="0" stop-color="#ffffff" offset="1" ></stop></linearGradient><linearGradient id="SvgjsLinearGradient3378" x1="130" y1="81" x2="126" y2="85" gradientTransform="matrix(1 0 0 1 -50 0)" gradientUnits="userSpaceOnUse" class="svga-on-canvas-eyesiris-gradient-left-7"><stop id="SvgjsStop3379" stop-opacity="1" stop-color="#ffffff" offset="0" ></stop><stop id="SvgjsStop3380" stop-opacity="0" stop-color="#ffffff" offset="1" ></stop></linearGradient><radialGradient id="SvgjsRadialGradient3383" cx="-578.76" cy="-490.73" r="84.646" gradientTransform="matrix(0.096 -0.0248 0.0245 0.0961 192.4794 119.8404)" gradientUnits="userSpaceOnUse" class="svga-on-canvas-eyesiris-gradient-right-1"><stop id="SvgjsStop3384" stop-opacity="0.8" stop-color="#ffffff" offset="0" ></stop><stop id="SvgjsStop3385" stop-opacity="0" stop-color="#ffffff" offset="1" ></stop></radialGradient><radialGradient id="SvgjsRadialGradient3387" cx="-584.778" cy="-487.329" r="84.644" gradientTransform="matrix(0.0991 8.856325e-004 -0.0011 0.0991 182.3104 135.839)" gradientUnits="userSpaceOnUse" class="svga-on-canvas-eyesiris-gradient-right-2"><stop id="SvgjsStop3388" stop-opacity="0.8" stop-color="#ffffff" offset="0" ></stop><stop id="SvgjsStop3389" stop-opacity="0" stop-color="#ffffff" offset="1" ></stop></radialGradient><linearGradient id="SvgjsLinearGradient3393" x1="120.284" y1="93.047" x2="121.611" y2="91.467" gradientUnits="userSpaceOnUse" class="svga-on-canvas-eyesiris-gradient-right-5"><stop id="SvgjsStop3394" stop-opacity="1" stop-color="#ffffff" offset="0" ></stop><stop id="SvgjsStop3395" stop-opacity="0" stop-color="#ffffff" offset="1" ></stop></linearGradient><linearGradient id="SvgjsLinearGradient3401" x1="130" y1="81" x2="126" y2="85" gradientUnits="userSpaceOnUse" class="svga-on-canvas-eyesiris-gradient-right-7"><stop id="SvgjsStop3402" stop-opacity="1" stop-color="#ffffff" offset="0" ></stop><stop id="SvgjsStop3403" stop-opacity="0" stop-color="#ffffff" offset="1" ></stop></linearGradient><radialGradient id="SvgjsRadialGradient3425" cx="127" cy="87.834" r="14" gradientTransform="matrix(-1 0 0 1 200 0)" gradientUnits="userSpaceOnUse" class="svga-on-canvas-eyesback-gradient-left-0"><stop id="SvgjsStop3426" stop-opacity="1" stop-color="#ffffff" offset="0" ></stop><stop id="SvgjsStop3427" stop-opacity="1" stop-color="#fdfefe" offset="0.544" ></stop><stop id="SvgjsStop3428" stop-opacity="1" stop-color="#f6f8f9" offset="0.74" ></stop><stop id="SvgjsStop3429" stop-opacity="1" stop-color="#eaeff2" offset="0.879" ></stop><stop id="SvgjsStop3430" stop-opacity="1" stop-color="#d9e3e8" offset="0.992" ></stop><stop id="SvgjsStop3431" stop-opacity="1" stop-color="#d8e2e7" offset="1" ></stop></radialGradient><radialGradient id="SvgjsRadialGradient3433" cx="127" cy="87.834" r="14" gradientUnits="userSpaceOnUse" class="svga-on-canvas-eyesback-gradient-right-0"><stop id="SvgjsStop3434" stop-opacity="1" stop-color="#ffffff" offset="0" ></stop><stop id="SvgjsStop3435" stop-opacity="1" stop-color="#fdfefe" offset="0.544" ></stop><stop id="SvgjsStop3436" stop-opacity="1" stop-color="#f6f8f9" offset="0.74" ></stop><stop id="SvgjsStop3437" stop-opacity="1" stop-color="#eaeff2" offset="0.879" ></stop><stop id="SvgjsStop3438" stop-opacity="1" stop-color="#d9e3e8" offset="0.992" ></stop><stop id="SvgjsStop3439" stop-opacity="1" stop-color="#d8e2e7" offset="1" ></stop></radialGradient><radialGradient id="SvgjsRadialGradient3441" cx="127" cy="87.834" r="14" gradientTransform="matrix(-1 0 0 1 200 0)" gradientUnits="userSpaceOnUse" class="svga-on-canvas-eyesfront-gradient-left-0"><stop id="SvgjsStop3442" stop-opacity="1" stop-color="#ffffff" offset="0" ></stop><stop id="SvgjsStop3443" stop-opacity="1" stop-color="#fdfefe" offset="0.544" ></stop><stop id="SvgjsStop3444" stop-opacity="1" stop-color="#f6f8f9" offset="0.74" ></stop><stop id="SvgjsStop3445" stop-opacity="1" stop-color="#eaeff2" offset="0.879" ></stop><stop id="SvgjsStop3446" stop-opacity="1" stop-color="#d9e3e8" offset="0.992" ></stop><stop id="SvgjsStop3447" stop-opacity="1" stop-color="#d8e2e7" offset="1" ></stop></radialGradient><radialGradient id="SvgjsRadialGradient3451" cx="125.16" cy="86.942" fx="138.734" fy="85.449" r="18.705" gradientTransform="matrix(0.9998 0.0208 0.0131 -0.6281 -51.4298 138.9481)" gradientUnits="userSpaceOnUse" class="svga-on-canvas-eyesfront-gradient-left-3"><stop id="SvgjsStop3452" stop-opacity="1" stop-color="#e1ac8f" offset="0" ></stop><stop id="SvgjsStop3453" stop-opacity="0.3" stop-color="#e1ac8f" offset="0.7" ></stop><stop id="SvgjsStop3454" stop-opacity="0" stop-color="#f0c7b1" offset="1" ></stop></radialGradient><radialGradient id="SvgjsRadialGradient3456" cx="67.721" cy="109.165" r="29.505" gradientTransform="matrix(1.0322 -0.0541 0.0541 1.0322 -5.8613 6.0176)" gradientUnits="userSpaceOnUse" class="svga-on-canvas-eyesfront-gradient-left-4"><stop id="SvgjsStop3457" stop-opacity="0" stop-color="#000000" offset="0.95" ></stop><stop id="SvgjsStop3458" stop-opacity="0.3" stop-color="#000000" offset="1" ></stop></radialGradient><radialGradient id="SvgjsRadialGradient3462" cx="127" cy="87.834" r="14" gradientUnits="userSpaceOnUse" class="svga-on-canvas-eyesfront-gradient-right-0"><stop id="SvgjsStop3463" stop-opacity="1" stop-color="#ffffff" offset="0" ></stop><stop id="SvgjsStop3464" stop-opacity="1" stop-color="#fdfefe" offset="0.544" ></stop><stop id="SvgjsStop3465" stop-opacity="1" stop-color="#f6f8f9" offset="0.74" ></stop><stop id="SvgjsStop3466" stop-opacity="1" stop-color="#eaeff2" offset="0.879" ></stop><stop id="SvgjsStop3467" stop-opacity="1" stop-color="#d9e3e8" offset="0.992" ></stop><stop id="SvgjsStop3468" stop-opacity="1" stop-color="#d8e2e7" offset="1" ></stop></radialGradient><radialGradient id="SvgjsRadialGradient3472" cx="125.16" cy="86.942" fx="138.734" fy="85.449" r="18.705" gradientTransform="matrix(-0.9998 0.0208 -0.0131 -0.6281 251.4298 138.9481)" gradientUnits="userSpaceOnUse" class="svga-on-canvas-eyesfront-gradient-right-3"><stop id="SvgjsStop3473" stop-opacity="1" stop-color="#e1ac8f" offset="0" ></stop><stop id="SvgjsStop3474" stop-opacity="0.3" stop-color="#e1ac8f" offset="0.7" ></stop><stop id="SvgjsStop3475" stop-opacity="0" stop-color="#f0c7b1" offset="1" ></stop></radialGradient><radialGradient id="SvgjsRadialGradient3477" cx="67.721" cy="109.165" r="29.506" gradientTransform="matrix(-1.0322 -0.0541 -0.0541 1.0322 205.8613 6.0176)" gradientUnits="userSpaceOnUse" class="svga-on-canvas-eyesfront-gradient-right-4"><stop id="SvgjsStop3478" stop-opacity="0" stop-color="#000000" offset="0.95" ></stop><stop id="SvgjsStop3479" stop-opacity="0.3" stop-color="#000000" offset="1" ></stop></radialGradient><linearGradient id="SvgjsLinearGradient3523" x1="99.98" y1="171.27" x2="99.98" y2="136.351" gradientUnits="userSpaceOnUse" class="svga-on-canvas-chinshadow-gradient-single-0"><stop id="SvgjsStop3524" stop-opacity="0.8" stop-color="#e1ac8f" offset="0" ></stop><stop id="SvgjsStop3525" stop-opacity="1" stop-color="#c27b55" offset="0.7" ></stop></linearGradient><linearGradient id="SvgjsLinearGradient3562" x1="100" y1="142" x2="100" y2="139" gradientUnits="userSpaceOnUse" class="svga-on-canvas-mouth-gradient-single-0"><stop id="SvgjsStop3563" stop-opacity="1" stop-color="#e8b9a0" offset="0.1" ></stop><stop id="SvgjsStop3564" stop-opacity="1" stop-color="#e1ac8f" offset="1" ></stop></linearGradient><linearGradient id="SvgjsLinearGradient3592" x1="130" y1="81" x2="126" y2="85" gradientTransform="matrix(1 0 0 1 -50 0)" gradientUnits="userSpaceOnUse" class="svga-on-canvas-eyesiris-gradient-left-6"><stop id="SvgjsStop3593" stop-opacity="1" stop-color="#ffffff" offset="0" ></stop><stop id="SvgjsStop3594" stop-opacity="0" stop-color="#ffffff" offset="1" ></stop></linearGradient><linearGradient id="SvgjsLinearGradient3602" x1="130" y1="81" x2="126" y2="85" gradientUnits="userSpaceOnUse" class="svga-on-canvas-eyesiris-gradient-right-6"><stop id="SvgjsStop3603" stop-opacity="1" stop-color="#ffffff" offset="0" ></stop><stop id="SvgjsStop3604" stop-opacity="0" stop-color="#ffffff" offset="1" ></stop></linearGradient></defs></svg>